<svg width="568" height="283" viewBox="0 0 568 283" fill="none" xmlns="http://www.w3.org/2000/svg">
<g clip-path="url(#clip0_116_195)">
<path d="M92.9055 32.7027C91.703 32.2887 90.4904 31.9051 89.2686 31.5523C89.4739 30.7106 89.6628 29.8792 89.8305 29.0623C92.5838 15.6484 90.7839 4.8418 84.636 1.28376C78.7415 -2.1272 69.1016 1.4295 59.3658 9.93344C58.4063 10.773 57.4681 11.6368 56.5521 12.524C55.9389 11.9341 55.3148 11.3556 54.6803 10.7888C44.4767 1.69618 34.2492 -2.13606 28.108 1.43216C22.2188 4.85376 20.475 15.0127 22.9537 27.7254C23.2003 28.9844 23.4788 30.237 23.7888 31.4819C22.3411 31.8947 20.9442 32.3342 19.6073 32.802C7.64437 36.9881 0.00469971 43.5483 0.00469971 50.3529C0.00469971 57.3808 8.20623 64.43 20.6661 68.7044C21.6762 69.0495 22.6948 69.3692 23.7208 69.6634C23.3876 71.0042 23.0918 72.354 22.8337 73.7114C20.4706 86.2035 22.3159 96.1223 28.1892 99.5222C34.2554 103.033 44.4369 99.4248 54.3505 90.7268C55.1544 90.0197 55.9406 89.2925 56.7083 88.546C57.7003 89.5066 58.7188 90.4393 59.7626 91.343C69.3659 99.6365 78.8501 102.985 84.7177 99.5762C90.7781 96.055 92.7479 85.3995 90.1907 72.4356C89.9892 71.42 89.7633 70.4094 89.5131 69.4047C90.2282 69.1921 90.9299 68.9733 91.6141 68.7456C104.567 64.4384 112.995 57.4748 112.995 50.3529C112.995 43.5235 105.109 36.919 92.9055 32.7027ZM90.0962 64.1474C89.4783 64.3525 88.8445 64.5505 88.1983 64.7432C86.7683 60.1995 84.8386 55.3684 82.4768 50.3764C84.7305 45.5036 86.586 40.734 87.9759 36.22C89.1318 36.5558 90.2533 36.9097 91.3347 37.2832C101.791 40.8961 108.169 46.2372 108.169 50.3529C108.169 54.7367 101.281 60.4277 90.0962 64.1474ZM85.4556 73.3765C86.5864 79.1087 86.7475 84.2916 85.9985 88.3435C85.3259 91.9844 83.9726 94.4115 82.299 95.3839C78.7384 97.4526 71.1235 94.7637 62.9109 87.6707C61.9401 86.8305 60.9927 85.9634 60.0698 85.0703C63.2539 81.5757 66.4357 77.5131 69.5412 73.0009C75.0036 72.5145 80.1641 71.7189 84.8439 70.6331C85.0693 71.5426 85.2733 72.4573 85.4556 73.3765ZM38.5257 95.0264C35.0468 96.2592 32.2759 96.2946 30.6009 95.3254C27.0368 93.2624 25.5551 85.298 27.5762 74.6151C27.8164 73.3527 28.0915 72.0972 28.4011 70.8502C33.0293 71.8779 38.1523 72.6168 43.6275 73.0624C46.7541 77.4776 50.0278 81.5358 53.327 85.0894C52.6259 85.7703 51.9081 86.4338 51.1744 87.0793C46.7903 90.9252 42.3974 93.654 38.5257 95.0264ZM22.2277 64.1204C16.718 62.2302 12.168 59.7738 9.04925 57.0933C6.24655 54.6849 4.83196 52.2932 4.83196 50.3529C4.83196 46.2234 10.9657 40.9564 21.1962 37.3766C22.4378 36.9425 23.7371 36.5328 25.0855 36.1483C26.4997 40.7641 28.3543 45.5904 30.5925 50.4708C28.3252 55.4233 26.4441 60.3267 25.0162 64.997C24.0797 64.7278 23.1499 64.4355 22.2277 64.1204ZM27.6909 26.7947C25.5675 15.9031 26.9777 7.68707 30.5267 5.62499C34.3066 3.42868 42.6653 6.56013 51.4755 14.4115C52.05 14.9247 52.6152 15.4482 53.1708 15.9819C49.8879 19.52 46.6442 23.5481 43.5454 27.9371C38.2313 28.4315 33.1445 29.2253 28.4677 30.2889C28.1796 29.1311 27.9206 27.9661 27.6909 26.7951V26.7947ZM76.4301 38.8739C75.3254 36.9589 74.1798 35.0679 72.994 33.2024C76.5991 33.66 80.0533 34.2673 83.2969 35.0098C82.3232 38.1426 81.1095 41.4175 79.6808 44.7753C78.6364 42.7867 77.5527 40.8191 76.4301 38.8739ZM56.5543 19.4443C58.7806 21.8652 61.0104 24.5678 63.2035 27.5003C58.7545 27.2895 54.2981 27.2886 49.849 27.4977C52.0444 24.5922 54.2932 21.8931 56.5543 19.4443ZM36.551 38.9071C35.4424 40.8367 34.3789 42.792 33.3612 44.7713C31.9559 41.4255 30.7532 38.1355 29.7711 34.9584C32.9949 34.2346 36.4327 33.6427 40.0149 33.1936C38.8158 35.0705 37.6609 36.9754 36.551 38.9067V38.9071ZM40.1177 67.8569C36.4168 67.4423 32.9273 66.8811 29.7045 66.1767C30.702 62.9429 31.9312 59.5829 33.367 56.1653C34.3886 58.1461 35.4566 60.1026 36.57 62.0331C37.7149 64.0176 38.9004 65.9614 40.1177 67.8569ZM56.6876 81.6027C54.3995 79.1255 52.1177 76.3848 49.8892 73.4372C52.0528 73.5222 54.2583 73.5657 56.5 73.5657C58.8031 73.5657 61.0797 73.5138 63.3205 73.4137C61.1203 76.4145 58.8989 79.1592 56.6876 81.6027ZM79.7262 55.9908C81.2366 59.446 82.5095 62.7883 83.5202 65.9667C80.2444 66.7171 76.7073 67.3214 72.9803 67.7701C74.1746 65.87 75.331 63.9462 76.449 61.9998C77.5857 60.0215 78.6784 58.0179 79.7262 55.9908ZM72.268 59.5794C70.5564 62.5635 68.7486 65.4909 66.8475 68.3571C63.4037 68.6019 59.9524 68.7235 56.5 68.7216C52.9836 68.7216 49.5635 68.6118 46.27 68.3974C44.3192 65.5378 42.4769 62.6053 40.7471 59.6059H40.7475C39.0258 56.6225 37.4177 53.5745 35.9265 50.4685C37.4139 47.3619 39.0172 44.3124 40.733 41.3267L40.7325 41.3272C42.4477 38.3407 44.2752 35.4206 46.2113 32.5734C49.5714 32.3182 53.0172 32.1853 56.4996 32.1853H56.5C59.9983 32.1853 63.4485 32.3196 66.8078 32.5765C68.7242 35.4195 70.5401 38.3295 72.2521 41.301C73.9736 44.2802 75.5981 47.3147 77.123 50.3999C75.6138 53.5166 73.9944 56.5784 72.268 59.5794ZM82.2253 5.48058C86.0087 7.67068 87.4802 16.5024 85.103 28.0842C84.9511 28.8231 84.7808 29.5757 84.5954 30.339C79.9072 29.2528 74.8169 28.4452 69.4873 27.9433C66.3827 23.506 63.1656 19.4717 59.9361 15.9793C60.7825 15.1604 61.649 14.3628 62.5349 13.5872C70.8768 6.30142 78.6731 3.4247 82.2253 5.48058ZM56.5 40.2263C62.0723 40.2263 66.5897 44.7603 66.5897 50.3529C66.5897 55.9456 62.0723 60.4795 56.5 60.4795C50.9277 60.4795 46.4103 55.9456 46.4103 50.3529C46.4103 44.7603 50.9277 40.2263 56.5 40.2263Z" fill="#00D8FF"/>
</g>
<g clip-path="url(#clip1_116_195)">
<path d="M321.02 47.8219L275.176 1.98038C272.537 -0.6598 268.255 -0.6598 265.613 1.98038L256.094 11.5001L268.17 23.5763C270.976 22.6281 274.194 23.2642 276.431 25.5012C278.679 27.7525 279.311 30.9981 278.339 33.8134L289.978 45.452C292.793 44.482 296.042 45.1095 298.291 47.3621C301.434 50.5039 301.434 55.596 298.291 58.7399C295.147 61.8841 290.055 61.8841 286.91 58.7399C284.545 56.3733 283.961 52.9013 285.158 49.9888L274.305 39.1352L274.303 67.6973C275.09 68.0863 275.809 68.6002 276.431 69.2189C279.574 72.3607 279.574 77.4532 276.431 80.5995C273.287 83.7422 268.193 83.7422 265.054 80.5995C261.911 77.4532 261.911 72.3611 265.054 69.2193C265.807 68.4658 266.702 67.869 267.687 67.4635V38.6352C266.7 38.2324 265.805 37.6353 265.054 36.8793C262.672 34.5013 262.1 31.0071 263.32 28.0831L251.415 16.1775L219.981 47.6099C217.34 50.2525 217.34 54.5349 219.981 57.1755L265.826 103.018C268.465 105.658 272.746 105.658 275.389 103.018L321.019 57.3884C323.66 54.747 323.66 50.4621 321.019 47.8219" fill="#DE4C36"/>
</g>
<g clip-path="url(#clip2_116_195)">
<path d="M528.673 50.0767C524.603 50.0975 521.065 51.0695 518.103 52.5063C517.016 50.3721 515.929 48.4708 515.738 47.0761C515.525 45.4493 515.269 44.4561 515.525 42.5122C515.781 40.5683 516.931 37.8001 516.91 37.589C516.889 37.3778 516.654 36.3846 514.31 36.3637C511.966 36.3424 509.941 36.8073 509.707 37.42C509.472 38.0326 509.025 39.4273 508.727 40.8637C508.322 42.9771 504.039 50.5198 501.588 54.4711C500.799 52.9291 500.117 51.5765 499.968 50.499C499.755 48.8722 499.499 47.879 499.755 45.9351C500.011 43.9912 501.162 41.2235 501.14 41.0119C501.119 40.8007 500.884 39.8075 498.54 39.7866C496.196 39.7653 494.171 40.2303 493.937 40.8429C493.703 41.456 493.447 42.8924 492.957 44.2871C492.467 45.6818 486.777 58.275 485.285 61.5285C484.682 62.8453 484.05 64.1487 483.389 65.4376C483.389 65.4376 483.367 65.501 483.303 65.6066C483.095 66.0107 482.882 66.4123 482.664 66.811V66.8319C482.344 67.4028 482.003 67.9307 481.833 67.9307C481.705 67.9307 481.471 66.4095 481.876 64.3388C482.728 59.9652 484.752 53.1615 484.731 52.9291C484.731 52.8022 485.115 51.6191 483.41 51.006C481.748 50.3934 481.151 51.4075 481.002 51.4075C480.853 51.4075 480.746 51.7668 480.746 51.7668C480.746 51.7668 482.6 44.1181 477.209 44.1181C473.842 44.1181 469.196 47.7734 466.894 51.0695C464.278 52.4811 461.664 53.8968 459.052 55.3166C457.795 56.014 456.495 56.7113 455.28 57.3661C455.195 57.2818 455.11 57.1758 455.024 57.0915C448.503 50.1822 436.442 45.3012 436.953 36.0257C437.145 32.6449 438.317 23.7705 460.118 12.9947C478.061 4.22585 492.339 6.6555 494.811 12.0436C498.348 19.735 487.161 34.0184 468.62 36.0887C461.546 36.8708 457.837 34.1661 456.9 33.152C455.92 32.0953 455.77 32.0319 455.408 32.2435C454.811 32.5607 455.195 33.5113 455.408 34.0605C455.962 35.4969 458.242 38.0326 462.099 39.2796C465.509 40.378 473.799 40.991 483.836 37.1454C495.067 32.8348 503.847 20.8546 501.268 10.8184C498.689 0.633924 481.641 -2.72554 465.509 2.958C455.92 6.33922 445.52 11.6634 438.04 18.594C429.154 26.8341 427.747 33.9971 428.322 36.9977C430.39 47.6465 445.201 54.5771 451.125 59.7114C450.826 59.8805 450.549 60.0286 450.315 60.1555C447.353 61.6132 436.058 67.4658 433.245 73.6568C430.049 80.6716 433.757 85.7009 436.208 86.3765C443.815 88.4686 451.636 84.7076 455.834 78.4953C460.032 72.2834 459.521 64.2119 457.582 60.5144C457.56 60.4722 457.539 60.4296 457.496 60.3875C458.264 59.9439 459.052 59.479 459.819 59.0354C461.23 58.2088 462.658 57.4126 464.103 56.6474C463.378 58.6126 462.845 60.958 462.59 64.3388C462.27 68.3113 463.911 73.4665 466.063 75.4947C467.022 76.3828 468.152 76.4037 468.876 76.4037C471.391 76.4037 472.521 74.3329 473.778 71.8819C475.312 68.8818 476.697 65.3954 476.697 65.3954C476.697 65.3954 474.971 74.8191 479.659 74.8191C481.364 74.8191 483.09 72.6214 483.858 71.5018V71.5226C483.858 71.5226 483.9 71.4592 483.986 71.3114C484.156 71.0369 484.262 70.8674 484.262 70.8674V70.8257C484.944 69.6421 486.479 66.9587 488.759 62.5004C491.7 56.7535 494.534 49.5696 494.534 49.5696C494.534 49.5696 494.79 51.3232 495.663 54.2391C496.175 55.9505 497.24 57.831 498.093 59.648C497.411 60.5991 496.985 61.127 496.985 61.127L497.006 61.1483C496.452 61.8665 495.855 62.6482 495.195 63.4094C492.872 66.1558 490.102 69.3046 489.718 70.2126C489.27 71.2902 489.377 72.0722 490.23 72.7062C490.848 73.1711 491.955 73.2341 493.085 73.1711C495.174 73.0229 496.644 72.5159 497.368 72.1991C498.498 71.7977 499.819 71.1846 501.055 70.2761C503.335 68.6067 504.72 66.2192 504.592 63.0714C504.529 61.3386 503.953 59.6059 503.25 57.9787C503.463 57.6833 503.655 57.3874 503.868 57.0915C507.469 51.8724 510.261 46.1462 510.261 46.1462C510.261 46.1462 510.517 47.8998 511.39 50.8162C511.817 52.2952 512.691 53.901 513.458 55.4643C510.069 58.1903 507.981 61.3595 507.235 63.4302C505.893 67.2759 506.936 69.0082 508.919 69.4097C509.813 69.6 511.092 69.1772 512.03 68.7758C513.223 68.3956 514.63 67.7408 515.972 66.7684C518.253 65.0996 520.447 62.775 520.32 59.6272C520.256 58.1903 519.872 56.7743 519.339 55.4009C522.216 54.2182 525.924 53.563 530.655 54.1122C540.799 55.2953 542.802 61.5706 542.418 64.2123C542.035 66.8532 539.904 68.29 539.201 68.7336C538.497 69.1777 538.263 69.3254 538.327 69.6421C538.412 70.107 538.753 70.0862 539.35 70.0015C540.181 69.8537 544.678 67.8672 544.869 63.0075C545.189 56.7956 539.222 50.0132 528.673 50.0767ZM450.421 76.2346C447.054 79.8687 442.366 81.2421 440.342 80.0803C438.168 78.8333 439.02 73.4665 443.155 69.6213C445.669 67.2759 448.908 65.0991 451.061 63.7683C451.551 63.4724 452.276 63.0501 453.149 62.5217C453.298 62.437 453.384 62.3949 453.384 62.3949L453.895 62.0777C455.408 67.5714 453.959 72.4103 450.421 76.2346ZM474.929 59.7114C473.756 62.543 471.306 69.7903 469.814 69.3888C468.535 69.0508 467.747 63.5571 469.558 58.1269C470.475 55.4009 472.414 52.147 473.543 50.8796C475.376 48.851 477.4 48.1744 477.89 48.9991C478.509 50.0767 475.653 57.9366 474.929 59.7114ZM495.152 69.3041C494.662 69.5579 494.193 69.7269 493.98 69.6C493.831 69.5153 494.193 69.1772 494.193 69.1772C494.193 69.1772 496.729 66.473 497.731 65.2473C498.306 64.5291 498.988 63.684 499.713 62.7329V63.0075C499.713 66.2405 496.558 68.4169 495.152 69.3041H495.152ZM510.751 65.7756C510.389 65.5219 510.453 64.6768 511.667 62.0355C512.136 61.0001 513.244 59.2678 515.141 57.5985C515.354 58.2746 515.504 58.9298 515.482 59.5424C515.461 63.6206 512.52 65.1417 510.751 65.7756Z" fill="#CD6799"/>
</g>
<path d="M22.1325 265.004L13.7062 170.5H106.294L97.8562 264.989L59.9437 275.5L22.1325 265.004Z" fill="#E44F26"/>
<path d="M60 267.468L90.6375 258.974L97.845 178.229H60V267.468Z" fill="#F1662A"/>
<path d="M60 213.276H44.6625L43.605 201.408H60V189.816H30.9375L31.215 192.929L34.0613 224.868H60V213.276ZM60 243.378L59.9475 243.393L47.04 239.909L46.215 230.665H34.5787L36.2025 248.86L59.9475 255.452L60 255.438V243.378Z" fill="#EBEBEB"/>
<path d="M59.9587 213.276V224.868H74.2312L72.8887 239.901L59.9587 243.389V255.449L83.7225 248.86L83.895 246.903L86.6175 216.389L86.9025 213.276H59.9587ZM59.9587 189.816V201.408H87.9562L88.1887 198.805L88.7175 192.929L88.995 189.816H59.9587Z" fill="white"/>
<path d="M246.133 264.154L237.71 170.438H330.29L321.856 264.139L283.944 274.562L246.133 264.154Z" fill="#1572B6"/>
<path d="M284 266.597L314.637 258.174L321.845 178.102H284V266.597Z" fill="#33A9DC"/>
<path d="M284 212.054H299.338L300.395 200.284H284V188.79H313.062L312.785 191.872L309.939 223.549H284V212.054Z" fill="white"/>
<path d="M284.071 241.904L284.019 241.919L271.111 238.461L270.286 229.294H258.65L260.274 247.341L284.015 253.879L284.071 253.864V241.904Z" fill="#EBEBEB"/>
<path d="M298.351 223.062L296.956 238.453L284.03 241.912V253.871L307.79 247.341L307.966 245.4L309.98 223.062H298.351Z" fill="white"/>
<path d="M284.041 188.79V200.284H256.044L255.811 197.7L255.283 191.872L255.005 188.79H284.041ZM284 212.054V223.549H271.254L271.021 220.964L270.496 215.137L270.219 212.054H284Z" fill="#EBEBEB"/>
<path d="M455.5 170.5H560.5V275.5H455.5V170.5Z" fill="#F5DE19"/>
<path d="M526.034 252.531C526.928 254.348 528.318 255.876 530.043 256.937C531.768 257.999 533.758 258.552 535.784 258.531C539.871 258.531 542.485 256.487 542.485 253.656C542.485 250.281 539.8 249.074 535.3 247.105L532.832 246.048C525.707 243.014 520.982 239.215 520.982 231.182C520.982 223.784 526.607 218.148 535.431 218.148C538.288 217.941 541.142 218.581 543.637 219.986C546.132 221.391 548.159 223.499 549.464 226.049L541.75 230.98C541.248 229.716 540.373 228.635 539.242 227.879C538.11 227.124 536.776 226.73 535.416 226.75C534.823 226.691 534.224 226.755 533.657 226.94C533.09 227.125 532.567 227.426 532.123 227.824C531.679 228.222 531.323 228.709 531.077 229.252C530.831 229.795 530.701 230.384 530.695 230.98C530.695 233.939 532.529 235.139 536.762 236.98L539.23 238.038C547.615 241.634 552.355 245.298 552.355 253.536C552.355 262.42 545.376 267.287 536.005 267.287C532.354 267.52 528.713 266.691 525.522 264.901C522.332 263.11 519.727 260.434 518.024 257.196L526.034 252.531ZM491.177 253.386C492.726 256.135 494.136 258.46 497.526 258.46C500.766 258.46 502.814 257.193 502.814 252.261V218.71H512.68V252.392C512.68 262.607 506.68 267.257 497.946 267.257C494.859 267.426 491.793 266.657 489.151 265.051C486.51 263.444 484.416 261.076 483.145 258.258L491.177 253.386Z" fill="black"/>
<defs>
<clipPath id="clip0_116_195">
<rect width="113" height="101" fill="white"/>
</clipPath>
<clipPath id="clip1_116_195">
<rect width="105" height="105" fill="white" transform="translate(218)"/>
</clipPath>
<clipPath id="clip2_116_195">
<rect width="117" height="87" fill="white" transform="translate(428)"/>
</clipPath>
</defs>
</svg>
