<svg width="50" height="50" viewBox="0 0 50 50" fill="none" xmlns="http://www.w3.org/2000/svg">
<rect width="50" height="50" rx="7" fill="#1075EB"/>
<path fill-rule="evenodd" clip-rule="evenodd" d="M20.4844 5.81055C21.8877 4.95546 23.4372 4.53634 24.9802 4.50653C26.5222 4.46778 28.0937 4.81754 29.5419 5.60925C30.4807 6.12096 31.2932 6.77442 31.9686 7.53326L31.9918 7.55963C32.015 7.58601 32.0382 7.61238 32.0614 7.63876C32.3816 8.00811 32.6795 8.40858 32.943 8.84119L47.403 34.3393C50.011 38.5876 48.6766 44.1724 44.4319 46.7556C40.1871 49.3343 34.5811 47.968 31.9686 43.7198L29.6806 39.9925C27.7636 36.8755 24.5818 28.8125 22.1258 26.5081C19.5101 24.0595 15.9691 22.589 12.1134 22.6747C11.324 22.6922 10.5499 22.7767 9.7954 22.9189L16.3873 10.8031C16.908 9.84219 17.4043 8.81082 18.0804 7.94948C18.1021 7.92211 18.1238 7.89474 18.1455 7.86737L18.1672 7.83999C18.8005 7.05207 19.5758 6.36332 20.4844 5.81055Z" fill="white"/>
<ellipse cx="13.5" cy="33.5" rx="9.5" ry="8.5" fill="white"/>
</svg>
