<svg width="141" height="77" viewBox="0 0 141 77" fill="none" xmlns="http://www.w3.org/2000/svg">
<path d="M130.449 73.5692C128.046 73.5692 125.919 73.1784 124.066 72.3969C122.243 71.5864 120.81 70.3852 119.768 68.7932C118.755 67.2012 118.248 65.2329 118.248 62.8883C118.248 59.6175 119.174 57.0124 121.027 55.0731C122.879 53.1048 125.644 52.1206 129.32 52.1206C132.677 52.1206 135.297 52.9745 137.178 54.6823C139.089 56.3901 140.044 58.7202 140.044 61.6726V65.2763H125.759C126.136 66.3762 126.874 67.1578 127.974 67.6209C129.074 68.084 130.564 68.3156 132.446 68.3156C133.633 68.3156 134.819 68.2143 136.006 68.0116C137.222 67.7801 138.191 67.5196 138.915 67.2301V72.1364C136.889 73.0916 134.067 73.5692 130.449 73.5692ZM125.759 60.8477H133.01V60.1096C133.01 59.2991 132.75 58.6334 132.229 58.1123C131.737 57.5913 130.854 57.3308 129.58 57.3308C128.162 57.3308 127.163 57.6347 126.584 58.2426C126.034 58.8215 125.759 59.6899 125.759 60.8477Z" fill="#1075EB"/>
<path d="M112.932 73.7069C110.413 73.7069 108.619 73.1714 107.548 72.1004C106.477 71.0295 105.941 69.3506 105.941 67.064V44.009H114.104V66.1522C114.104 66.789 114.234 67.2232 114.495 67.4547C114.755 67.6573 115.16 67.7586 115.71 67.7586C116.087 67.7586 116.448 67.7297 116.796 67.6718C117.172 67.6139 117.519 67.5271 117.838 67.4113V72.8386C117.085 73.128 116.347 73.3451 115.623 73.4898C114.929 73.6346 114.031 73.7069 112.932 73.7069Z" fill="#1075EB"/>
<path d="M72.5189 49.856C70.8883 49.856 69.5664 48.5342 69.5664 46.9036V46.9036C69.5664 45.273 70.8883 43.9512 72.5189 43.9512H75.4279C77.0585 43.9512 78.3803 45.273 78.3803 46.9036V46.9036C78.3803 48.5342 77.0585 49.856 75.4279 49.856H72.5189ZM73.1006 72.1478C72.0983 73.2872 70.2177 72.5799 70.2177 71.0624V59.9504C70.2177 59.1712 69.5861 58.5396 68.807 58.5396V58.5396C67.963 58.5396 67.3078 57.8035 67.4057 56.9652L67.6095 55.2205C67.7846 53.7216 69.0545 52.5914 70.5636 52.5914H73.2289C76.0739 52.5914 78.3803 54.8977 78.3803 57.7428V70.9906C78.3803 72.482 76.5534 73.2018 75.5361 72.1114V72.1114C74.8735 71.4013 73.7422 71.4185 73.1006 72.1478V72.1478Z" fill="#1075EB"/>
<path d="M112.503 39.3847C108.594 39.3847 105.704 38.5177 103.832 36.7835C101.988 35.0493 101.066 32.5169 101.066 29.1863C101.066 25.8831 102.002 23.3645 103.873 21.6303C105.745 19.8686 108.622 18.9878 112.503 18.9878C116.412 18.9878 119.302 19.8686 121.174 21.6303C123.073 23.3645 124.023 25.8831 124.023 29.1863C124.023 32.5169 123.087 35.0493 121.215 36.7835C119.343 38.5177 116.439 39.3847 112.503 39.3847ZM112.503 33.7281C113.769 33.7281 114.677 33.3703 115.228 32.6546C115.806 31.9389 116.095 30.7828 116.095 29.1863C116.095 27.6173 115.806 26.4749 115.228 25.7592C114.677 25.016 113.769 24.6444 112.503 24.6444C111.264 24.6444 110.37 25.016 109.819 25.7592C109.268 26.4749 108.993 27.6173 108.993 29.1863C108.993 30.7828 109.268 31.9389 109.819 32.6546C110.37 33.3703 111.264 33.7281 112.503 33.7281Z" fill="#565656"/>
<path d="M92.1925 73.685C88.2838 73.685 85.3935 72.8179 83.5218 71.0837C81.6775 69.3496 80.7554 66.8172 80.7554 63.4865C80.7554 60.1833 81.6913 57.6647 83.563 55.9305C85.4348 54.1689 88.3113 53.288 92.1925 53.288C96.1012 53.288 98.9915 54.1689 100.863 55.9305C102.763 57.6647 103.712 60.1833 103.712 63.4865C103.712 66.8172 102.776 69.3496 100.905 71.0837C99.0328 72.8179 96.1288 73.685 92.1925 73.685ZM92.1925 68.0283C93.4587 68.0283 94.3671 67.6705 94.9176 66.9548C95.4957 66.2391 95.7847 65.083 95.7847 63.4865C95.7847 61.9175 95.4957 60.7752 94.9176 60.0595C94.3671 59.3163 93.4587 58.9447 92.1925 58.9447C90.9538 58.9447 90.0592 59.3163 89.5087 60.0595C88.9582 60.7752 88.6829 61.9175 88.6829 63.4865C88.6829 65.083 88.9582 66.2391 89.5087 66.9548C90.0592 67.6705 90.9538 68.0283 92.1925 68.0283Z" fill="#1075EB"/>
<path d="M89.4129 46.2388C88.4495 46.2388 87.4035 46.1975 86.2749 46.1149C85.1463 46.0598 84.0728 45.9497 83.0543 45.7846C82.0634 45.6194 81.2376 45.4267 80.577 45.2065V40.2518C81.3202 40.4995 82.1735 40.706 83.1369 40.8711C84.1278 41.0363 85.1325 41.1602 86.151 41.2428C87.1695 41.3253 88.1054 41.3666 88.9587 41.3666C90.4176 41.3666 91.5599 41.284 92.3857 41.1189C93.239 40.9813 93.6657 40.7198 93.6657 40.3344C93.6657 40.0041 93.528 39.7839 93.2528 39.6738C92.9775 39.5912 92.4545 39.5499 91.6838 39.5499H86.5226C84.5132 39.5499 82.958 39.2333 81.8569 38.6002C80.7834 37.9396 80.2466 36.9624 80.2466 35.6687C80.2466 33.852 81.2513 32.5858 83.2608 31.8701C82.1322 31.292 81.3064 30.5626 80.7834 29.6817C80.2604 28.8009 79.9989 27.6861 79.9989 26.3373C79.9989 23.8049 80.8522 21.9469 82.5588 20.7632C84.293 19.5796 86.7841 18.9878 90.0322 18.9878C90.7204 18.9878 91.4911 19.0428 92.3444 19.1529C93.1977 19.2355 93.8171 19.3181 94.2024 19.4007H101.882L101.717 24.1077H99.1159C99.6113 24.7408 99.8591 25.5115 99.8591 26.4199C99.8591 28.4293 99.2673 30.0258 98.0836 31.2094C96.9275 32.3655 95.097 32.9436 92.5922 32.9436C92.2343 32.9436 91.8489 32.9298 91.436 32.9023C91.0232 32.8473 90.6378 32.806 90.2799 32.7784C89.6744 32.8335 89.1514 32.9436 88.711 33.1087C88.2705 33.2739 88.0503 33.5492 88.0503 33.9345C88.0503 34.2098 88.1742 34.4025 88.4219 34.5126C88.6697 34.5952 89.0137 34.6365 89.4542 34.6365H93.9547C95.9641 34.6365 97.5469 35.1044 98.703 36.0403C99.8591 36.9762 100.437 38.3525 100.437 40.1692C100.437 42.0961 99.5425 43.5825 97.7533 44.6285C95.9641 45.702 93.184 46.2388 89.4129 46.2388ZM90.0735 28.6908C91.2847 28.6908 92.1242 28.4843 92.5922 28.0715C93.0601 27.6586 93.2941 26.9704 93.2941 26.007C93.2941 25.0436 93.0601 24.3416 92.5922 23.9012C92.1242 23.4608 91.2847 23.2406 90.0735 23.2406C88.9449 23.2406 88.1191 23.4608 87.5961 23.9012C87.1007 24.3141 86.8529 25.016 86.8529 26.007C86.8529 26.9429 87.0869 27.631 87.5549 28.0715C88.0503 28.4843 88.8899 28.6908 90.0735 28.6908Z" fill="#565656"/>
<path d="M65.5057 39.3847C64.267 39.3847 63.1109 39.1645 62.0374 38.7241C60.9914 38.2837 60.1519 37.5955 59.5187 36.6596C58.8856 35.7237 58.5691 34.5401 58.5691 33.1088C58.5691 31.0443 59.2572 29.4478 60.6336 28.3192C62.0099 27.1631 64.0881 26.585 66.8683 26.585H71.9468V26.2134C71.9468 25.4427 71.6303 24.8784 70.9972 24.5206C70.3641 24.1627 69.2493 23.9838 67.6527 23.9838C65.3956 23.9838 63.166 24.3279 60.9639 25.016V20.3503C61.9548 19.965 63.1935 19.6484 64.6799 19.4007C66.1663 19.1254 67.6803 18.9878 69.2217 18.9878C72.3322 18.9878 74.7958 19.6209 76.6125 20.8871C78.4293 22.1533 79.3376 24.1627 79.3376 26.9153V38.9718H72.5662L72.1946 37.4028C71.5064 38.0084 70.6118 38.4901 69.5108 38.848C68.4372 39.2058 67.1022 39.3847 65.5057 39.3847ZM68.1482 34.8429C69.0291 34.8429 69.7723 34.6915 70.3778 34.3887C71.011 34.0859 71.5339 33.7143 71.9468 33.2739V30.8378H68.1895C66.4829 30.8378 65.6296 31.5122 65.6296 32.861C65.6296 34.1823 66.4691 34.8429 68.1482 34.8429Z" fill="#565656"/>
<path d="M52.1352 16.7994C50.5846 16.7994 49.3275 15.5423 49.3275 13.9917V13.9917C49.3275 12.4411 50.5846 11.184 52.1352 11.184H54.9016C56.4522 11.184 57.7093 12.4411 57.7093 13.9917V13.9917C57.7093 15.5423 56.4522 16.7994 54.9016 16.7994H52.1352ZM49.9469 38.9718V26.3988C49.9469 25.6579 49.3462 25.0572 48.6053 25.0572V25.0572C47.8027 25.0572 47.1797 24.3572 47.2728 23.56L47.4665 21.9008C47.633 20.4754 48.8406 19.4006 50.2758 19.4006H52.5579C55.4029 19.4006 57.7093 21.707 57.7093 24.552V38.9718H49.9469Z" fill="#565656"/>
<path fill-rule="evenodd" clip-rule="evenodd" d="M48.5439 70.2426C48.7813 70.4948 49.0356 70.7331 49.3068 70.9573C51.4777 72.723 54.4302 73.6058 58.1641 73.6058C59.6693 73.6058 61.0442 73.49 62.2888 73.2585C63.5624 73.0558 64.7492 72.7085 65.8491 72.2164V66.2247C64.9518 66.6879 64.0111 67.0497 63.0269 67.3102C62.0428 67.5417 61.0297 67.6575 59.9877 67.6575C58.0483 67.6575 56.63 67.2812 55.7327 66.5287C54.8354 65.7761 54.3868 64.5604 54.3868 62.8815C54.3868 61.0869 54.8499 59.8423 55.7761 59.1476C56.7313 58.4529 58.1352 58.1056 59.9877 58.1056C62.1586 58.1056 64.0979 58.5108 65.8057 59.3213V53.5901C64.7058 53.0691 63.548 52.7073 62.3323 52.5046C61.1166 52.2731 59.7416 52.1573 58.2075 52.1573C55.7761 52.1573 53.6486 52.5481 51.8251 53.3296C50.0015 54.0822 48.5832 55.2544 47.5701 56.8464C46.8154 58.0325 46.3417 59.4515 46.1493 61.1035L47.5712 63.8004C48.6356 65.8209 48.9258 68.1081 48.5439 70.2426Z" fill="#1075EB"/>
<path fill-rule="evenodd" clip-rule="evenodd" d="M24.0935 38.3899C25.2774 37.5599 26.5849 37.1537 27.8873 37.1257C29.1888 37.0891 30.5155 37.4299 31.7384 38.2001C32.5312 38.6979 33.2175 39.3334 33.7881 40.0712L33.8077 40.0968C33.8273 40.1225 33.8469 40.1481 33.8665 40.1737C34.137 40.5328 34.3887 40.9222 34.6115 41.3427L46.2199 63.0718C48.4242 67.2014 47.302 72.627 43.7211 75.1343C40.1401 77.6372 35.4073 76.306 33.1992 72.1765L31.2652 68.5534C29.6449 65.5235 27.5685 60.7426 25.4939 58.502C23.2843 56.121 20.2944 54.6899 17.0401 54.7707C16.3738 54.7872 15.7205 54.8688 15.0837 55.0065L20.639 43.2383C21.0778 42.305 21.4959 41.3031 22.066 40.4666C22.0843 40.4401 22.1026 40.4135 22.1209 40.3869L22.1392 40.3603C22.6731 39.5951 23.327 38.9264 24.0935 38.3899Z" fill="#1075EB"/>
<path fill-rule="evenodd" clip-rule="evenodd" d="M25.0836 36.3036C26.0001 35.9539 26.9488 35.7876 27.8906 35.7906C29.3397 35.7859 30.8064 36.1825 32.1458 37.0319C32.3888 37.1855 32.6223 37.3505 32.846 37.5258V26.1308C33.2314 25.7454 33.7269 25.4151 34.3324 25.1399C34.9655 24.8646 35.5711 24.727 36.1492 24.727C37.1126 24.727 37.7732 24.9196 38.1311 25.305C38.5164 25.6904 38.7091 26.3372 38.7091 27.2456V38.9718H46.5128V26.6676C46.5128 24.0526 45.8934 22.1257 44.6548 20.887C43.4161 19.6208 41.448 18.9877 38.7504 18.9877C37.5668 18.9877 36.452 19.1391 35.406 19.4419C34.3875 19.7447 33.5342 20.1301 32.846 20.598V11.1428H25.0836V36.3036Z" fill="#565656"/>
<path fill-rule="evenodd" clip-rule="evenodd" d="M5.68393 10.6046V11.1279H4.0469C2.33987 11.1279 0.956055 12.5117 0.956055 14.2187V15.902C0.956055 17.6091 2.33987 18.9929 4.0469 18.9929H5.68393V30.4682C5.68393 31.9057 5.85238 33.2552 6.19206 34.5165C6.5345 35.7791 7.09925 36.9837 7.88769 38.1318C8.67889 39.2773 9.84014 40.1899 11.3728 40.8709C12.9083 41.5482 14.7392 41.8881 16.8684 41.8881C17.9061 41.8881 18.9056 41.8187 19.8671 41.6801C19.8924 41.631 19.9177 41.5818 19.9431 41.5325C20.3603 40.7208 20.7863 39.8918 21.3214 39.1817L21.3847 39.0986L21.4058 39.0708C22.021 38.2731 22.767 37.5808 23.6347 37.0318C23.7802 36.9396 23.9272 36.8527 24.0755 36.7711C24.0605 36.7206 24.0446 36.6703 24.0277 36.6201L22.5067 32.1143C22.4335 31.8976 22.1784 31.8046 21.9829 31.9233C21.7247 32.0782 21.3616 32.2343 20.8949 32.3916C20.4268 32.5464 19.9794 32.6232 19.5527 32.6232C17.8474 32.6232 16.9955 31.2436 16.9955 28.4843V18.9929H21.8389C22.9769 18.9929 23.8995 18.0703 23.8995 16.9323V13.1884C23.8995 12.0504 22.9769 11.1279 21.8389 11.1279H16.9955V0.706971C16.9955 0.316522 16.6789 0 16.2885 0C10.4318 0 5.68393 4.74783 5.68393 10.6046Z" fill="#1075EB"/>
<ellipse cx="15.8025" cy="67.7367" rx="9.279" ry="9.14644" fill="#1075EB"/>
</svg>
