<svg width="216" height="216" viewBox="0 0 216 216" fill="none" xmlns="http://www.w3.org/2000/svg">
<path d="M145.154 71.0909L137.723 55.8C136.131 52.1091 132.415 50 128.169 50H88.3615C84.1154 50 80.4 52.1091 78.8077 55.8L70.8462 71.0909H49.6154C43.7769 71.0909 39 75.8364 39 81.6364V155.455C39 161.255 43.7769 166 49.6154 166H166.385C172.223 166 177 161.255 177 155.455V81.6364C177 75.8364 172.223 71.0909 166.385 71.0909H145.154Z" stroke="#666666" stroke-width="8" stroke-miterlimit="10" stroke-linejoin="round"/>
<path d="M108 145C125.673 145 140 130.673 140 113C140 95.3269 125.673 81 108 81C90.3269 81 76 95.3269 76 113C76 130.673 90.3269 145 108 145Z" stroke="#666666" stroke-width="8" stroke-miterlimit="10" stroke-linejoin="round"/>
<rect x="4" y="4" width="208" height="208" rx="11" stroke="#666666" stroke-width="8"/>
</svg>
